<svg xmlns="http://www.w3.org/2000/svg" xmlns:cc="http://web.resource.org/cc/" xmlns:s="http://inkscape.sourceforge.net/DTD/s odipodi-0.dtd" xmlns:svg="http://www.w3.org/2000/svg" xmlns:xlink="http://www.w3.org/1999/xlink" id="svg1325" width="16" height="16" version="1.0" s:docbase="/home/lapo/Desktop/mate-applets/scalable" s:docname="mate-panel.svg" s:version=".32"><defs id="defs1327"><linearGradient id="linearGradient2783"><stop id="stop2785" offset="0" stop-color="#729fcf" stop-opacity="1"/><stop id="stop2787" offset="1" stop-color="#3465a4" stop-opacity="1"/></linearGradient><linearGradient id="linearGradient2270"><stop id="stop2272" offset="0" stop-color="#fff" stop-opacity="1"/><stop id="stop2274" offset="1" stop-color="#fff" stop-opacity="0"/></linearGradient><linearGradient id="linearGradient2262"><stop id="stop2264" offset="0" stop-color="#d3d7cf" stop-opacity="1"/><stop id="stop2266" offset="1" stop-color="#d3d7cf" stop-opacity="0"/></linearGradient><linearGradient id="linearGradient2252"><stop id="stop2254" offset="0" stop-color="#888a85" stop-opacity="1"/><stop id="stop2256" offset="1" stop-color="#888a85" stop-opacity="0"/></linearGradient><linearGradient id="linearGradient2258" x1="31.206" x2="47.438" y1="17.438" y2="17.438" gradientTransform="matrix(0.391305,0,0,0.37931,-0.478261,-6.137932)" gradientUnits="userSpaceOnUse" xlink:href="#linearGradient2252"/><linearGradient id="linearGradient2268" x1="36.535" x2="46.705" y1="20.688" y2="20.688" gradientTransform="matrix(0.391305,0,0,0.37931,-0.478261,-6.137932)" gradientUnits="userSpaceOnUse" xlink:href="#linearGradient2262"/><linearGradient id="linearGradient1341" x1="23.997" x2="45.754" y1="18.375" y2="18.375" gradientTransform="matrix(0.377778,0,0,0.333334,0.177778,-4.666668)" gradientUnits="userSpaceOnUse" xlink:href="#linearGradient2270"/><radialGradient id="radialGradient1906" cx="34.375" cy="38.266" r="12.044" fx="34.375" fy="38.266" gradientTransform="matrix(1.53143,0,0,1.53143,-18.26764,-20.33562)" gradientUnits="userSpaceOnUse" xlink:href="#linearGradient2783"/></defs><s:namedview fill="#2e3436" stroke="#eeeeec" bordercolor="#666666" borderopacity="1" gridempspacing="2" gridspacingx=".5" gridspacingy=".5" pagecolor="#ffffff" showborder="false" showgrid="false" showguides="false"><s:guide id="guide2260" orientation="vertical" position="31.875"/></s:namedview><metadata id="metadata1330"/><g id="layer1"><rect id="rect1333" width="18" height="11" x=".5" y=".5" fill="url(#linearGradient2268)" fill-opacity="1" stroke="url(#linearGradient2258)" stroke-dasharray="none" stroke-dashoffset="0" stroke-linecap="butt" stroke-linejoin="round" stroke-miterlimit="4" stroke-opacity="1" stroke-width="1" opacity="1"/><rect id="rect2210" width="17" height="9" x="1.5" y="1.5" fill="none" fill-opacity="1" stroke="url(#linearGradient1341)" stroke-dasharray="none" stroke-dashoffset="0" stroke-linecap="butt" stroke-linejoin="round" stroke-miterlimit="4" stroke-opacity="1" stroke-width="1" opacity=".7"/><path id="path1895" fill="url(#radialGradient1906)" fill-opacity="1" stroke="#204a87" stroke-dasharray="none" stroke-dashoffset="1.2" stroke-linecap="round" stroke-linejoin="miter" stroke-miterlimit="4" stroke-opacity="1" stroke-width="1.794" d="M 44.724505 32.620426 A 11.667262 11.667262 0 1 1 21.389981,32.620426 A 11.667262 11.667262 0 1 1 44.724505 32.620426 z" transform="matrix(0.557761,0,0,0.557114,-9.430496,-9.173308)"/><path id="path2803" fill="none" fill-opacity="1" stroke="#fff" stroke-dasharray="none" stroke-dashoffset="1.2" stroke-linecap="round" stroke-linejoin="miter" stroke-miterlimit="4" stroke-opacity="1" stroke-width="2.121" d="M 44.724505 32.620426 A 11.667262 11.667262 0 1 1 21.389981,32.620426 A 11.667262 11.667262 0 1 1 44.724505 32.620426 z" transform="matrix(0.471393,0,0,0.471405,-6.58308,-6.377427)"/><path id="text1891" fill="#fff" fill-opacity="1" stroke="none" stroke-linecap="butt" stroke-linejoin="miter" stroke-opacity="1" stroke-width="1" d="M 10,12 L 8,12 L 8,9.0056311 L 10,9" font-family="Bitstream Vera Sans" font-size="28" font-style="normal" font-weight="normal"/><path id="path2782" fill="#fff" fill-opacity="1" stroke="none" stroke-dasharray="none" stroke-dashoffset="1.2" stroke-linecap="round" stroke-linejoin="miter" stroke-miterlimit="4" stroke-opacity="1" stroke-width="2" d="M 31 22.5 A 1.5 1.5 0 1 1 28,22.5 A 1.5 1.5 0 1 1 31 22.5 z" transform="matrix(0.66715,0,0,0.667168,-10.68165,-8.010528)"/><path id="path1908" fill="#fff" fill-opacity="1" stroke="none" stroke-dasharray="none" stroke-dashoffset="1.2" stroke-linecap="round" stroke-linejoin="miter" stroke-miterlimit="4" stroke-opacity="1" stroke-width="2" d="M 31 22.5 A 1.5 1.5 0 1 1 28,22.5 A 1.5 1.5 0 1 1 31 22.5 z" transform="matrix(0.66715,0,0,0.667168,-10.68165,-8.010528)"/></g></svg>