<svg xmlns="http://www.w3.org/2000/svg" xmlns:cc="http://web.resource.org/cc/" xmlns:s="http://inkscape.sourceforge.net/DTD/s odipodi-0.dtd" xmlns:svg="http://www.w3.org/2000/svg" xmlns:xlink="http://www.w3.org/1999/xlink" id="svg2" width="32" height="32" version="1.0" s:docbase="/home/lapo/Templates" s:docname="Icona 48x48.svg" s:version=".32"><defs id="defs4"><linearGradient id="linearGradient3690"><stop id="stop3692" offset="0" stop-color="#fff" stop-opacity="1"/><stop id="stop3694" offset="1" stop-color="#fff" stop-opacity=".469"/></linearGradient><linearGradient id="linearGradient3674"><stop id="stop3676" offset="0" stop-color="#3465a4" stop-opacity="1"/><stop id="stop3678" offset="1" stop-color="#729fcf" stop-opacity="1"/></linearGradient><linearGradient id="linearGradient2781"><stop id="stop2783" offset="0" stop-color="#d3d7cf" stop-opacity="1"/><stop id="stop2785" offset="1" stop-color="#eeeeec" stop-opacity="1"/></linearGradient><linearGradient id="linearGradient5048"><stop id="stop5050" offset="0" stop-color="#000" stop-opacity="0"/><stop id="stop5056" offset=".5" stop-color="#000" stop-opacity="1"/><stop id="stop5052" offset="1" stop-color="#000" stop-opacity="0"/></linearGradient><linearGradient id="linearGradient5060"><stop id="stop5062" offset="0" stop-color="#000" stop-opacity="1"/><stop id="stop5064" offset="1" stop-color="#000" stop-opacity="0"/></linearGradient><linearGradient id="linearGradient5798" x1="302.857" x2="302.857" y1="366.648" y2="609.505" gradientTransform="matrix(2.774389,0,0,1.969706,-1892.179,-872.8854)" gradientUnits="userSpaceOnUse" xlink:href="#linearGradient5048"/><radialGradient id="radialGradient5800" cx="605.714" cy="486.648" r="117.143" fx="605.714" fy="486.648" gradientTransform="matrix(2.774389,0,0,1.969706,-1891.633,-872.8854)" gradientUnits="userSpaceOnUse" xlink:href="#linearGradient5060"/><radialGradient id="radialGradient5802" cx="605.714" cy="486.648" r="117.143" fx="605.714" fy="486.648" gradientTransform="matrix(-2.774389,0,0,1.969706,112.7623,-872.8854)" gradientUnits="userSpaceOnUse" xlink:href="#linearGradient5060"/><linearGradient id="linearGradient5841" x1="9.5" x2="9.5" y1="16.264" y2="13.409" gradientTransform="matrix(0.741582,0,0,0.724136,-2.545028,-1.379285)" gradientUnits="userSpaceOnUse" xlink:href="#linearGradient3690"/><linearGradient id="linearGradient5853" x1="24.926" x2="24.926" y1="40" y2="19.539" gradientTransform="matrix(0.756708,0,0,0.742029,-2.923171,-1.808703)" gradientUnits="userSpaceOnUse" xlink:href="#linearGradient2781"/><linearGradient id="linearGradient5855" x1="23.069" x2="23.069" y1="6.799" y2="12.403" gradientTransform="matrix(0.756708,0,0,0.742029,-2.923171,-1.808703)" gradientUnits="userSpaceOnUse" xlink:href="#linearGradient3674"/><linearGradient id="linearGradient2940" x1="302.857" x2="302.857" y1="366.648" y2="609.505" gradientTransform="matrix(2.774389,0,0,1.969706,-1892.179,-872.8854)" gradientUnits="userSpaceOnUse" xlink:href="#linearGradient5048"/><radialGradient id="radialGradient2942" cx="605.714" cy="486.648" r="117.143" fx="605.714" fy="486.648" gradientTransform="matrix(2.774389,0,0,1.969706,-1891.633,-872.8854)" gradientUnits="userSpaceOnUse" xlink:href="#linearGradient5060"/><radialGradient id="radialGradient2944" cx="605.714" cy="486.648" r="117.143" fx="605.714" fy="486.648" gradientTransform="matrix(-2.774389,0,0,1.969706,112.7623,-872.8854)" gradientUnits="userSpaceOnUse" xlink:href="#linearGradient5060"/></defs><s:namedview fill="#729fcf" stroke="#3465a4" bordercolor="#666666" borderopacity="1" gridempspacing="2" gridspacingx=".5" gridspacingy=".5" pagecolor="#ffffff" showborder="true" showgrid="false" showguides="false"><s:guide id="guide2191" orientation="vertical" position="24.042"/><s:guide id="guide2203" orientation="horizontal" position="25.986"/></s:namedview><metadata id="metadata7"/><g id="layer1"><g id="g5022" display="inline" opacity=".587" transform="matrix(9.85011e-3,0,0,9.407189e-3,18.26104,26.41764)"><rect stroke-linejoin="miter" style="marker:none" id="rect4173" width="1339.633" height="478.357" x="-1559.252" y="-150.697" fill="url(#linearGradient5798)" fill-opacity="1" fill-rule="nonzero" stroke="none" stroke-dasharray="none" stroke-dashoffset="0" stroke-linecap="round" stroke-miterlimit="4" stroke-opacity="1" stroke-width="1" marker-end="none" marker-mid="none" marker-start="none" color="#000" display="inline" opacity=".402" overflow="visible" visibility="visible"/><path stroke-width="1" style="marker:none" id="path5058" fill="url(#radialGradient5800)" fill-opacity="1" fill-rule="nonzero" stroke="none" stroke-dasharray="none" stroke-dashoffset="0" stroke-linecap="round" stroke-linejoin="miter" stroke-miterlimit="4" stroke-opacity="1" marker-end="none" marker-mid="none" marker-start="none" d="M -219.61876,-150.68038 C -219.61876,-150.68038 -219.61876,327.65041 -219.61876,327.65041 C -76.744594,328.55086 125.78146,220.48075 125.78138,88.454235 C 125.78138,-43.572302 -33.655436,-150.68036 -219.61876,-150.68038 z" color="#000" display="inline" opacity=".402" overflow="visible" visibility="visible"/><path id="path5018" fill="url(#radialGradient5802)" fill-opacity="1" fill-rule="nonzero" stroke="none" stroke-dasharray="none" stroke-dashoffset="0" stroke-linecap="round" stroke-linejoin="miter" stroke-miterlimit="4" stroke-opacity="1" stroke-width="1" marker-end="none" marker-mid="none" marker-start="none" d="M -1559.2523,-150.68038 C -1559.2523,-150.68038 -1559.2523,327.65041 -1559.2523,327.65041 C -1702.1265,328.55086 -1904.6525,220.48075 -1904.6525,88.454235 C -1904.6525,-43.572302 -1745.2157,-150.68036 -1559.2523,-150.68038 z" color="#000" display="inline" opacity=".402" overflow="visible" visibility="visible" style="marker:none"/></g><g id="g2932" display="inline" opacity=".587" transform="matrix(6.402571e-3,0,0,9.407189e-3,31.69468,26.41764)"><rect stroke-linejoin="miter" style="marker:none" id="rect2934" width="1339.633" height="478.357" x="-1559.252" y="-150.697" fill="url(#linearGradient2940)" fill-opacity="1" fill-rule="nonzero" stroke="none" stroke-dasharray="none" stroke-dashoffset="0" stroke-linecap="round" stroke-miterlimit="4" stroke-opacity="1" stroke-width="1" marker-end="none" marker-mid="none" marker-start="none" color="#000" display="inline" opacity=".402" overflow="visible" visibility="visible"/><path stroke-width="1" style="marker:none" id="path2936" fill="url(#radialGradient2942)" fill-opacity="1" fill-rule="nonzero" stroke="none" stroke-dasharray="none" stroke-dashoffset="0" stroke-linecap="round" stroke-linejoin="miter" stroke-miterlimit="4" stroke-opacity="1" marker-end="none" marker-mid="none" marker-start="none" d="M -219.61876,-150.68038 C -219.61876,-150.68038 -219.61876,327.65041 -219.61876,327.65041 C -76.744594,328.55086 125.78146,220.48075 125.78138,88.454235 C 125.78138,-43.572302 -33.655436,-150.68036 -219.61876,-150.68038 z" color="#000" display="inline" opacity=".402" overflow="visible" visibility="visible"/><path id="path2938" fill="url(#radialGradient2944)" fill-opacity="1" fill-rule="nonzero" stroke="none" stroke-dasharray="none" stroke-dashoffset="0" stroke-linecap="round" stroke-linejoin="miter" stroke-miterlimit="4" stroke-opacity="1" stroke-width="1" marker-end="none" marker-mid="none" marker-start="none" d="M -1559.2523,-150.68038 C -1559.2523,-150.68038 -1559.2523,327.65041 -1559.2523,327.65041 C -1702.1265,328.55086 -1904.6525,220.48075 -1904.6525,88.454235 C -1904.6525,-43.572302 -1745.2157,-150.68036 -1559.2523,-150.68038 z" color="#000" display="inline" opacity=".402" overflow="visible" visibility="visible" style="marker:none"/></g><g id="g5849" transform="matrix(1.001116,0,0,0.999878,-1.258226e-2,1.938635e-3)"><path id="rect1887" fill="url(#linearGradient5853)" fill-opacity="1" stroke="#888a85" stroke-miterlimit="4" stroke-opacity="1" stroke-width="1" d="M 3 4.875 C 2.1606322 4.875 1.5 5.521682 1.5 6.34375 L 1.5 26.03125 C 1.5 26.853319 2.1606321 27.5 3 27.5 L 17.40625 27.5 L 14.84375 23.84375 L 14.03125 22.6875 L 15.09375 21.8125 L 19.34375 18.25 L 9.875 13.3125 L 7.96875 12.3125 L 9.5625 10.84375 L 16.1875 4.875 L 3 4.875 z M 20.6875 4.875 L 13.1875 11.625 L 22.75 16.625 L 24.75 17.6875 L 23.03125 19.125 L 18.09375 23.25 L 21.0625 27.5 L 28.96875 27.5 C 29.808118 27.5 30.499999 26.853318 30.5 26.03125 L 30.5 6.34375 C 30.5 5.5216818 29.808117 4.8749999 28.96875 4.875 L 20.6875 4.875 z" transform="matrix(0.998885,0,0,1.000122,1.256823e-2,-1.938872e-3)"/><path id="rect2776" fill="url(#linearGradient5855)" fill-opacity="1" stroke="#204a87" stroke-linecap="round" stroke-miterlimit="4" stroke-opacity="1" stroke-width="1" d="M 11.59375,9 L 16.59375,4.5 L 3,4.5 C 2.1606322,4.5 1.5,5.1466815 1.5,5.96875 L 1.5,9 M 30.5,9 L 30.5,5.96875 C 30.5,5.1466817 29.808118,4.4999998 28.96875,4.5 L 21.09375,4.5 L 16.09375,9" transform="matrix(0.998885,0,0,1.000122,1.256823e-2,-1.938872e-3)"/></g><path id="rect2779" fill="none" fill-opacity="1" stroke="url(#linearGradient5841)" stroke-miterlimit="4" stroke-opacity="1" stroke-width="1" d="M 3.25 5.5 C 2.8410573 5.5 2.5 5.8194274 2.5 6.21875 L 2.5 25.78125 C 2.5 26.180573 2.8410574 26.5 3.25 26.5 L 15.46875 26.5 L 14 24.40625 L 12.6875 22.53125 L 14.46875 21.0625 L 17.59375 18.46875 L 9.40625 14.1875 L 6.21875 12.53125 L 8.875 10.125 L 14 5.5 L 3.25 5.5 z M 21.46875 5.5 L 14.90625 11.40625 L 23.21875 15.75 L 26.53125 17.5 L 23.65625 19.875 L 19.4375 23.40625 L 21.59375 26.5 L 28.75 26.5 C 29.158942 26.5 29.5 26.180572 29.5 25.78125 L 29.5 6.21875 C 29.5 5.8194273 29.158942 5.5 28.75 5.5 L 21.46875 5.5 z" opacity=".8"/><path id="path2788" fill="none" fill-opacity=".75" fill-rule="evenodd" stroke="#000" stroke-linecap="butt" stroke-linejoin="miter" stroke-opacity="1" stroke-width="1" d="M 88.875,-1.84375 L 73.5625,11.96875 L 85.0625,17.96875 L 79.0625,22.96875 L 86.0625,32.96875" opacity=".317"/><path id="path2872" fill="none" fill-opacity=".75" fill-rule="evenodd" stroke="#000" stroke-dasharray="none" stroke-linecap="butt" stroke-linejoin="miter" stroke-miterlimit="4" stroke-opacity="1" stroke-width="0" d="M 24.875,-1.84375 L 9.5625,11.96875 L 21.0625,17.96875 L 15.0625,22.96875 L 22.0625,32.96875" opacity=".317"/></g></svg>