<svg xmlns="http://www.w3.org/2000/svg" xmlns:svg="http://www.w3.org/2000/svg" id="svg1325" width="32" height="32" version="1.0"><metadata id="metadata1330"/><g id="layer1"><rect id="rect1333" width="32.5" height="25" x=".5" y="3.5" fill="#d3d7cf" fill-opacity="1" stroke="#888a85" stroke-dasharray="none" stroke-dashoffset="0" stroke-linecap="butt" stroke-linejoin="round" stroke-miterlimit="4" stroke-opacity="1" stroke-width="1" opacity="1"/><rect id="rect2210" width="31.352" height="23" x="1.5" y="4.5" fill="none" fill-opacity="1" stroke="#eeeeec" stroke-dasharray="none" stroke-dashoffset="0" stroke-linecap="butt" stroke-linejoin="round" stroke-miterlimit="4" stroke-opacity="1" stroke-width="1" opacity=".612"/><rect id="rect1337" width="8" height="21" x="2.5" y="5.5" fill="#dce0d8" fill-opacity="1" fill-rule="nonzero" stroke="#888a85" stroke-dasharray="none" stroke-dashoffset="0" stroke-linecap="square" stroke-linejoin="miter" stroke-miterlimit="4" stroke-opacity="1" stroke-width="1" marker-end="none" marker-mid="none" marker-start="none" color="#000" display="inline" opacity="1" overflow="visible" rx="1.625" ry="1.625" visibility="visible" style="marker:none"/><rect id="rect2212" width="6" height="19" x="3.5" y="6.5" fill="none" fill-opacity="1" fill-rule="nonzero" stroke="#fff" stroke-dasharray="none" stroke-dashoffset="0" stroke-linecap="square" stroke-linejoin="miter" stroke-miterlimit="4" stroke-opacity="1" stroke-width="1" marker-end="none" marker-mid="none" marker-start="none" color="#000" display="inline" opacity=".596" overflow="visible" rx=".563" ry=".564" visibility="visible" style="marker:none"/><path id="path2214" fill="#000" fill-opacity="1" fill-rule="evenodd" stroke="none" stroke-linecap="butt" stroke-linejoin="miter" stroke-opacity="1" stroke-width="1" d="M 5,15.5 L 8,13 L 8,18 L 5,15.5 z"/><g id="layer1-8" fill="#2e3436" fill-opacity="1" stroke-miterlimit="4" stroke-width="0" transform="matrix(1.2499327,0,0,1.2794713,10.948236,-2.3788982)"><path id="path5070" fill="#2e3436" fill-opacity="1" fill-rule="evenodd" d="m 1.6415,10.204 6.7832,3.7866 -6.7832,3.7866 z"/><path id="path5067" fill="#2e3436" fill-opacity="1" d="m 15.208,13.991 c 0,-3.658 -3.131,-6.6271 -6.7834,-6.6271 -2.109,0 -4.1361,1.0094 -5.348,2.5503 l 0.85177,0.47616 c 1.034,-1.2658 2.7359,-2.0798 4.4963,-2.0798 3.1115,-1e-7 5.8141,2.5683 5.8141,5.6799 0,3.1115 -2.7025,5.6799 -5.8141,5.6799 -1.7553,0 -3.5475,-0.92376 -4.5815,-2.183 l -0.84886,0.47427 c 1.2122,1.5345 3.3264,2.6554 5.4304,2.6554 3.6524,0 6.7832,-2.9686 6.7832,-6.6266 z"/><path id="path5648" fill="#2e3436" fill-opacity="1" d="m 12.301,13.99 c 0,-2.2361 -1.64,-3.7866 -3.8761,-3.7866 -1.1905,0 -2.0368,0.32699 -2.7782,1.1454 l 0.8789,0.49036 C 7.07789,11.29369 7.5906,11.15 8.4249,11.15 c 1.6896,0 2.9071,1.1392 2.9071,2.84 0,1.7008 -1.2175,2.84 -2.9071,2.84 -0.84982,0 -1.4491,-0.21841 -2.0039,-0.78193 l -0.86824,0.48468 c 0.74137,0.81851 1.6817,1.2439 2.8722,1.2439 2.2361,0 3.8761,-1.5505 3.8761,-3.7866 z"/></g></g></svg>