<svg xmlns="http://www.w3.org/2000/svg" xmlns:cc="http://web.resource.org/cc/" xmlns:svg="http://www.w3.org/2000/svg" xmlns:xlink="http://www.w3.org/1999/xlink" id="svg1307" width="32" height="32" version="1.0"><defs id="defs1309"><linearGradient id="linearGradient3140"><stop id="stop3142" offset="0" stop-color="#fff" stop-opacity="1"/><stop id="stop3144" offset="1" stop-color="#fff" stop-opacity="0"/></linearGradient><linearGradient id="linearGradient3031"><stop id="stop3033" offset="0" stop-color="#fff" stop-opacity="0"/><stop id="stop3041" offset=".5" stop-color="#fff" stop-opacity="1"/><stop id="stop3035" offset="1" stop-color="#fff" stop-opacity="0"/></linearGradient><linearGradient id="linearGradient3007"><stop id="stop3009" offset="0" stop-color="#000" stop-opacity="1"/><stop id="stop3011" offset="1" stop-color="#000" stop-opacity="0"/></linearGradient><linearGradient id="linearGradient2999"><stop id="stop3001" offset="0" stop-color="#000" stop-opacity="1"/><stop id="stop3003" offset="1" stop-color="#000" stop-opacity="0"/></linearGradient><linearGradient id="linearGradient2991"><stop id="stop2993" offset="0" stop-color="#000" stop-opacity="1"/><stop id="stop2995" offset="1" stop-color="#000" stop-opacity="0"/></linearGradient><linearGradient id="linearGradient2949"><stop id="stop2951" offset="0" stop-color="#fff" stop-opacity="1"/><stop id="stop2953" offset="1" stop-color="#fff" stop-opacity="0"/></linearGradient><linearGradient id="linearGradient2938"><stop id="stop2940" offset="0" stop-color="#fff" stop-opacity="1"/><stop id="stop2942" offset="1" stop-color="#fff" stop-opacity="0"/></linearGradient><linearGradient id="linearGradient2908"><stop id="stop2910" offset="0" stop-color="#000" stop-opacity="1"/><stop id="stop2916" offset=".459" stop-color="#a0a0a0" stop-opacity="1"/><stop id="stop2912" offset="1" stop-color="#000" stop-opacity="1"/></linearGradient><linearGradient id="linearGradient2879"><stop id="stop2881" offset="0" stop-color="#000" stop-opacity="1"/><stop id="stop2883" offset="1" stop-color="#000" stop-opacity="0"/></linearGradient><linearGradient id="linearGradient2851"><stop id="stop2853" offset="0" stop-color="#b15700" stop-opacity="1"/><stop id="stop2855" offset="1" stop-color="#b15700" stop-opacity="0"/></linearGradient><linearGradient id="linearGradient2841"><stop id="stop2843" offset="0" stop-color="#b15700" stop-opacity="1"/><stop id="stop2845" offset="1" stop-color="#ffaf61" stop-opacity="1"/></linearGradient><linearGradient id="linearGradient2822"><stop id="stop2824" offset="0" stop-color="#fed9a2" stop-opacity="1"/><stop id="stop2826" offset="1" stop-color="#fcaf3e" stop-opacity="1"/></linearGradient><linearGradient id="linearGradient2814"><stop id="stop2816" offset="0" stop-color="#fff" stop-opacity="1"/><stop id="stop2818" offset="1" stop-color="#fff" stop-opacity="0"/></linearGradient><linearGradient id="linearGradient2806"><stop id="stop2808" offset="0" stop-color="#000" stop-opacity="1"/><stop id="stop2810" offset="1" stop-color="#000" stop-opacity="0"/></linearGradient><linearGradient id="linearGradient2953"><stop id="stop2955" offset="0" stop-color="#fff" stop-opacity="1"/><stop id="stop2957" offset="1" stop-color="#fff" stop-opacity="0"/></linearGradient><linearGradient id="linearGradient2927"><stop id="stop2929" offset="0" stop-color="#fff" stop-opacity="1"/><stop id="stop2931" offset="1" stop-color="#c4c4bd" stop-opacity="1"/></linearGradient><linearGradient id="linearGradient2215"><stop id="stop2217" offset="0" stop-color="#fcaf3e" stop-opacity="1"/><stop id="stop2219" offset="1" stop-color="#f57900"/></linearGradient><linearGradient id="linearGradient2896" x1="15.819" x2="18.835" y1="18.417" y2="27.884" gradientTransform="matrix(0.65317,0,0,0.677917,0.535262,0.114061)" gradientUnits="userSpaceOnUse" xlink:href="#linearGradient2822"/><radialGradient id="radialGradient2933" cx="12.51" cy="18.175" r="3.069" fx="12.51" fy="18.175" gradientTransform="matrix(0.774722,0,0,0.78676,2.558566,3.937224)" gradientUnits="userSpaceOnUse" xlink:href="#linearGradient2927"/><linearGradient id="linearGradient2959" x1="10.52" x2="10.602" y1="15.219" y2="16.44" gradientUnits="userSpaceOnUse" xlink:href="#linearGradient2953"/><linearGradient id="linearGradient2812" x1="15" x2="14.75" y1="30.188" y2="24.563" gradientTransform="matrix(0.719559,0,0,0.717877,-0.633079,1.216483)" gradientUnits="userSpaceOnUse" xlink:href="#linearGradient2806"/><linearGradient id="linearGradient2820" x1="9.09" x2="9.577" y1="19.5" y2="22.929" gradientUnits="userSpaceOnUse" xlink:href="#linearGradient2814"/><radialGradient id="radialGradient2828" cx="13.6" cy="14.214" r="3.682" fx="13.6" fy="14.214" gradientTransform="matrix(0.673036,0,0,0.834892,0.166538,-0.204555)" gradientUnits="userSpaceOnUse" xlink:href="#linearGradient2822"/><linearGradient id="linearGradient2847" x1="11.449" x2="11.646" y1="17.084" y2="23.566" gradientUnits="userSpaceOnUse" xlink:href="#linearGradient2841"/><linearGradient id="linearGradient2857" x1="20.506" x2="22.804" y1="26.124" y2="23.516" gradientTransform="matrix(0.673036,0,0,0.671463,0.166538,2.455347)" gradientUnits="userSpaceOnUse" xlink:href="#linearGradient2851"/><radialGradient id="radialGradient2885" cx="20.153" cy="33.637" r="15.291" fx="20.153" fy="33.637" gradientTransform="matrix(1,0,0,0.257225,0,24.98463)" gradientUnits="userSpaceOnUse" xlink:href="#linearGradient2879"/><linearGradient id="linearGradient2914" x1="11" x2="10.563" y1="8.969" y2="12.281" gradientTransform="matrix(1.065193,0,0,1.062703,-4.157454,-2.432513)" gradientUnits="userSpaceOnUse" xlink:href="#linearGradient2908"/><linearGradient id="linearGradient2936" x1="27.424" x2="34.512" y1="15.168" y2="14.908" gradientTransform="matrix(0.643287,8.434448e-2,-8.896863e-2,0.675386,4.624351,0.449074)" gradientUnits="userSpaceOnUse" xlink:href="#linearGradient2215"/><linearGradient id="linearGradient2944" x1="20.969" x2="23.219" y1="18.626" y2="34.314" gradientUnits="userSpaceOnUse" xlink:href="#linearGradient2938"/><linearGradient id="linearGradient2955" x1="12.574" x2="12.574" y1="21.925" y2="19.5" gradientUnits="userSpaceOnUse" xlink:href="#linearGradient2949"/><linearGradient id="linearGradient3023" x1="35.531" x2="42.438" y1="20.719" y2="20.719" gradientUnits="userSpaceOnUse" xlink:href="#linearGradient2991"/><linearGradient id="linearGradient3025" x1="36.625" x2="42.594" y1="21.797" y2="21.797" gradientUnits="userSpaceOnUse" xlink:href="#linearGradient2999"/><linearGradient id="linearGradient3027" x1="38.344" x2="43.125" y1="23.203" y2="23.203" gradientUnits="userSpaceOnUse" xlink:href="#linearGradient3007"/><linearGradient id="linearGradient3037" x1="44.031" x2="37.594" y1="22.063" y2="22.219" gradientTransform="matrix(0.673036,0,0,0.671463,0.166538,2.455347)" gradientUnits="userSpaceOnUse" xlink:href="#linearGradient3031"/><linearGradient id="linearGradient3138" x1="26.248" x2="23.783" y1="38.032" y2="36.457" gradientTransform="matrix(0.65111,0,0,0.635315,0.303275,-0.311031)" gradientUnits="userSpaceOnUse" xlink:href="#linearGradient2215"/><linearGradient id="linearGradient3146" x1="17.704" x2="15.261" y1="24.234" y2="22.047" gradientUnits="userSpaceOnUse" xlink:href="#linearGradient3140"/></defs><metadata id="metadata1312"/><g id="layer1"><path id="path2877" fill="url(#radialGradient2885)" fill-opacity="1" fill-rule="evenodd" stroke="none" stroke-dasharray="none" stroke-dashoffset="0" stroke-linecap="butt" stroke-linejoin="round" stroke-miterlimit="4" stroke-opacity="1" stroke-width="1.25" marker-end="none" marker-mid="none" marker-start="none" d="M 35.443728 33.636894 A 15.291184 3.9332814 0 1 1 4.8613596,33.636894 A 15.291184 3.9332814 0 1 1 35.443728 33.636894 z" color="#000" display="inline" opacity=".294" overflow="visible" transform="matrix(0.673036,0,0,1.109046,0.761423,-13.21317)" visibility="visible" style="marker:none"/><path id="path3043" fill="#bd7102" fill-opacity="1" fill-rule="evenodd" stroke="#b15700" stroke-dasharray="none" stroke-dashoffset="0" stroke-linecap="butt" stroke-linejoin="miter" stroke-miterlimit="4" stroke-opacity="1" stroke-width="1" marker-end="none" marker-mid="none" marker-start="none" d="M 28.5,11 L 28.223726,17.3954 L 30.495223,12.863024 L 28.5,11 z" color="#000" display="inline" opacity="1" overflow="visible" visibility="visible" style="marker:none"/><path id="path2192" fill="url(#linearGradient2936)" fill-opacity="1" fill-rule="evenodd" stroke="#b15700" stroke-dasharray="none" stroke-linecap="butt" stroke-linejoin="miter" stroke-miterlimit="4" stroke-opacity="1" stroke-width="1" d="M 9.5049131,8.2134412 C 5.8989871,8.359849 2.5,11.75 0.5,16.25 C 1.25,20.25 6.0810821,24.871621 11.271632,24.193963 C 16.034499,23.572142 17.634784,21.306659 21.956079,17.752114 C 27.480349,20.528707 31,20.33305 31,20.33305 C 28.544203,17.440858 33.711252,13.056355 29,11 C 30.913634,13.699008 26.68242,15.58622 21.850917,14.2689 C 21.127426,13.736477 20.3731,13.190512 19.600453,12.653192 C 19.521938,11.121097 20.946611,9.7094504 22,8.5 C 17,8.5 16,9 15.309848,9.9883234 C 13.530685,9.037378 11.787837,8.3690527 10.241046,8.2344244 C 9.9977391,8.2132478 9.7453081,8.2036808 9.5049131,8.2134412 z"/><path id="path3029" fill="url(#linearGradient3037)" fill-opacity="1" fill-rule="evenodd" stroke="none" stroke-dasharray="none" stroke-dashoffset="0" stroke-linecap="butt" stroke-linejoin="miter" stroke-miterlimit="4" stroke-opacity="1" stroke-width="1" marker-end="none" marker-mid="none" marker-start="none" d="M 29.548759,13.639406 C 29.435066,16.292188 29.219252,17.598241 29.801147,19.304877 C 27.710168,19.567191 25.766243,19.179365 23.848987,18.318665 L 25.405382,15.632812 C 26.68643,15.62628 28.382776,14.990495 29.548759,13.639406 z" color="#000" display="inline" opacity=".356" overflow="visible" visibility="visible" style="marker:none"/><path id="path2223" fill="url(#linearGradient2896)" fill-opacity="1" fill-rule="evenodd" stroke="none" stroke-dashoffset="0" stroke-linecap="round" stroke-linejoin="round" stroke-miterlimit="4" stroke-opacity="1" stroke-width="1" marker-end="none" marker-mid="none" marker-start="none" d="M 21.81916,14.620723 C 14.225094,12.580309 9.0616321,22.858557 1.5150167,16.384069 C 3.1580378,11.668524 6.9165411,7.8604221 10.33281,8.5880237 C 12.539292,9.0579633 14.094834,9.640925 15.374097,10.309792 C 17.687403,11.51931 19.09728,13.009737 21.81916,14.620723 z" color="#000" display="inline" opacity=".943" overflow="visible" visibility="visible" style="marker:none"/><path id="path2934" fill="none" fill-opacity="1" fill-rule="evenodd" stroke="url(#linearGradient2944)" stroke-dasharray="none" stroke-linecap="butt" stroke-linejoin="miter" stroke-miterlimit="4" stroke-opacity="1" stroke-width="1" d="M 9.53125,9.125 C 6.544958,9.2462497 3.565706,12.277951 2.09375,16.375 C 2.2708647,18.066036 3.3282199,19.967455 4.96875,21.34375 C 6.6478562,22.752408 8.8498089,23.58237 11.15625,23.28125 C 13.410763,22.98691 14.831681,22.369658 16.28125,21.34375 C 17.730819,20.317842 19.21525,18.864739 21.40625,17.0625 C 21.677202,16.835579 22.055321,16.78679 22.375,16.9375 C 25.061224,18.287643 27.229728,18.901184 28.71875,19.1875 C 29.243481,19.288398 29.161454,19.246292 29.5,19.28125 C 29.386508,18.81474 29.32962,18.354672 29.34375,17.90625 C 29.375254,16.90643 29.610094,15.963645 29.75,15.125 C 29.879307,14.349889 29.881192,13.725031 29.75,13.21875 C 29.442828,13.919231 28.867256,14.470459 28.15625,14.84375 C 26.533896,15.695516 24.185411,15.862872 21.59375,15.15625 C 21.491435,15.121351 21.396185,15.068434 21.3125,15 C 20.588796,14.467421 19.821728,13.934238 19.0625,13.40625 C 18.831383,13.239007 18.69246,12.972738 18.6875,12.6875 C 18.634869,11.66047 19.055908,10.817814 19.5625,10.125 C 19.622388,10.043097 19.687862,9.9849644 19.75,9.90625 C 19.043357,9.9518191 17.931601,9.9443265 17.5625,10.03125 C 16.840065,10.201384 16.497187,10.43569 15.6875,10.8125 C 15.431825,10.940647 15.130675,10.940647 14.875,10.8125 C 13.157293,9.8944026 11.504745,9.2736192 10.15625,9.15625 C 9.9211566,9.1357881 9.6947893,9.1183601 9.53125,9.125 z" opacity=".459" transform="translate(0.152311,-0.123565)" xlink:href="#path2192"/><path id="path2180" fill="url(#radialGradient2933)" fill-opacity="1" fill-rule="evenodd" stroke="url(#linearGradient2847)" stroke-dasharray="none" stroke-dashoffset="0" stroke-linecap="round" stroke-linejoin="round" stroke-miterlimit="4" stroke-opacity="1" stroke-width=".949" marker-end="none" marker-mid="none" marker-start="none" d="M 15 19.5 A 2.75 3 0 1 1 9.5,19.5 A 2.75 3 0 1 1 15 19.5 z" color="#000" display="inline" overflow="visible" transform="matrix(1.101332,0,0,1.007195,-5.248347,-5.770077)" visibility="visible" style="marker:none"/><path id="path2917" fill="none" fill-opacity="1" fill-rule="evenodd" stroke="url(#linearGradient2820)" stroke-dasharray="none" stroke-dashoffset="0" stroke-linecap="round" stroke-linejoin="round" stroke-miterlimit="4" stroke-opacity="1" stroke-width="1.327" marker-end="none" marker-mid="none" marker-start="none" d="M 15 19.5 A 2.75 3 0 1 1 9.5,19.5 A 2.75 3 0 1 1 15 19.5 z" color="#000" display="inline" overflow="visible" transform="matrix(0.788277,0,0,0.720875,-1.413422,-0.186829)" visibility="visible" style="marker:none"/><path id="path2182" fill="#b15700" fill-opacity="1" fill-rule="evenodd" stroke="none" stroke-dasharray="none" stroke-linecap="butt" stroke-linejoin="miter" stroke-miterlimit="4" stroke-opacity="1" stroke-width="1.25" d="M 2.339868,19.349819 C 4.5363241,21.984001 7.1202941,19.125765 10.621818,18.35082 C 6.9279131,18.439298 4.6536071,21.060818 1.4319901,17.639666 L 2.339868,19.349819 z"/><path id="path2201" fill="#000" fill-opacity=".402" fill-rule="evenodd" stroke="none" stroke-dasharray="none" stroke-dashoffset="0" stroke-linecap="round" stroke-linejoin="round" stroke-miterlimit="4" stroke-opacity="1" stroke-width="1" marker-end="none" marker-mid="none" marker-start="none" d="M 9.2628731,10.749505 C 8.3637551,10.377269 7.3076191,10.717537 6.4851341,11.059939 C 9.6343781,10.956626 10.958258,15.863653 10.958258,15.863653 C 12.028136,13.668665 11.136783,11.525304 9.2628731,10.749505 z" color="#000" display="inline" overflow="visible" visibility="visible" style="marker:none"/><path id="path2221" fill="#000" fill-opacity="1" fill-rule="evenodd" stroke="#3465a4" stroke-dasharray="none" stroke-dashoffset="0" stroke-linecap="round" stroke-linejoin="round" stroke-miterlimit="4" stroke-opacity="1" stroke-width="1.976" marker-end="none" marker-mid="none" marker-start="none" d="M 28 24.5 A 2 2 0 1 1 24,24.5 A 2 2 0 1 1 28 24.5 z" color="#000" display="inline" overflow="visible" transform="matrix(0.504779,0,0,0.507247,-5.633812,1.086943)" visibility="visible" style="marker:none"/><path id="path1917" fill="url(#linearGradient2812)" fill-opacity="1" fill-rule="evenodd" stroke="none" stroke-dasharray="none" stroke-dashoffset="0" stroke-linecap="round" stroke-linejoin="round" stroke-miterlimit="4" stroke-opacity="1" stroke-width="1" marker-end="none" marker-mid="none" marker-start="none" d="M 1.9753222,18.535283 C 1.9753222,18.535283 4.4625191,23.663238 9.8788411,23.896159 C 16.598032,24.189666 21.493361,17.189262 21.493361,17.189262 L 1.9753222,18.535283 z" color="#000" display="inline" opacity=".314" overflow="visible" visibility="visible" style="marker:none"/><path id="path2190" fill="url(#linearGradient3138)" fill-opacity="1" fill-rule="evenodd" stroke="#b15700" stroke-dasharray="none" stroke-linecap="butt" stroke-linejoin="miter" stroke-miterlimit="4" stroke-opacity="1" stroke-width=".967" d="M 12.674361,21.289676 L 16.585375,26.564141 C 19.51537,24.975853 19.185459,22.560307 18.208795,21.289676 L 13.976581,20.019046 L 12.674361,21.289676 z"/><path id="path2935" fill="url(#linearGradient2959)" fill-opacity="1" fill-rule="nonzero" stroke="none" stroke-dasharray="none" stroke-dashoffset="0" stroke-linecap="round" stroke-linejoin="miter" stroke-miterlimit="4" stroke-opacity="1" stroke-width="1" marker-end="none" marker-mid="none" marker-start="none" d="M 12.21875 15.65625 A 1.5625 0.875 0 1 1 9.09375,15.65625 A 1.5625 0.875 0 1 1 12.21875 15.65625 z" color="#000" display="inline" opacity="1" overflow="visible" transform="matrix(0.864603,0,0,1.293872,-1.713426,-7.257184)" visibility="visible" style="marker:none"/><path id="path2830" fill="url(#radialGradient2828)" fill-opacity="1" fill-rule="evenodd" stroke="none" stroke-dasharray="none" stroke-dashoffset="0" stroke-linecap="round" stroke-linejoin="round" stroke-miterlimit="4" stroke-opacity="1" stroke-width="1" marker-end="none" marker-mid="none" marker-start="none" d="M 9.5008261,10.571458 C 8.6017081,10.199221 7.5455731,10.539489 6.7230881,10.881891 C 9.8723311,10.778578 11.196211,15.685605 11.196211,15.685605 C 12.266089,13.490617 11.374737,11.347256 9.5008261,10.571458 z" color="#000" display="inline" overflow="visible" visibility="visible" style="marker:none"/><path id="path2849" fill="url(#linearGradient2857)" fill-opacity="1" fill-rule="evenodd" stroke="none" stroke-dasharray="none" stroke-dashoffset="0" stroke-linecap="round" stroke-linejoin="round" stroke-miterlimit="4" stroke-opacity="1" stroke-width="1" marker-end="none" marker-mid="none" marker-start="none" d="M 10.874472,22.459579 L 15.03867,18.245763 L 16.406906,18.423812 L 10.874472,22.459579 z" color="#000" display="inline" opacity="1" overflow="visible" visibility="visible" style="marker:none"/><path id="path2901" fill="url(#linearGradient2914)" fill-opacity="1" fill-rule="evenodd" stroke="none" stroke-dasharray="none" stroke-dashoffset="0" stroke-linecap="butt" stroke-linejoin="round" stroke-miterlimit="4" stroke-opacity="1" stroke-width="1.25" marker-end="none" marker-mid="none" marker-start="none" d="M 6.4278985,11.781148 C 3.2323197,10.519188 2.5,5.4713449 2.5,5.4713449 C 2.5,5.4713449 3.2323197,9.323646 6.89392,10.784863 C 4.7681207,8.4836455 5.8305642,7.6469686 6,5.9999999 C 6.1044055,8.3629557 6.5,9.5 8.2254111,11.183377 C 7.3340933,9.720944 8.4114861,8.1365859 8.5,6.9999999 C 8.6625479,8.3696687 8.2774461,10.773107 9.290604,12.3125 C 8.2669292,11.927551 7.2757229,11.639781 6.4278985,11.781148 z" color="#000" display="inline" opacity="1" overflow="visible" visibility="visible" style="marker:none"/><path stroke-width="1.25" style="marker:none" id="path2903" fill="#000" fill-opacity="1" fill-rule="evenodd" stroke="none" stroke-dasharray="none" stroke-dashoffset="0" stroke-linecap="butt" stroke-linejoin="round" stroke-miterlimit="4" stroke-opacity="1" marker-end="none" marker-mid="none" marker-start="none" d="M 8.6578516,12.118098 C 8.1001176,10.853374 9.1995456,9.7223472 9.1995456,9.7223472 C 9.1995456,9.7223472 8.4151456,10.841131 9.1657186,12.128263 C 8.9788196,11.062266 9.2950736,10.737747 9.8064596,10.315603 C 9.3396086,11.140931 9.2030946,11.467144 9.5925246,12.618915 C 9.6098666,11.840434 9.9108026,11.613897 10.22379,11.199783 C 9.9498276,11.764609 9.9235326,12.66224 9.9340066,13.5 C 9.5477596,13.013335 9.2032726,12.498895 8.6578516,12.118098 z" color="#000" display="inline" opacity="1" overflow="visible" visibility="visible"/><path id="path2930" fill="#fff" fill-opacity="1" fill-rule="evenodd" stroke="none" stroke-dasharray="none" stroke-dashoffset="0" stroke-linecap="butt" stroke-linejoin="round" stroke-miterlimit="4" stroke-opacity="1" stroke-width="1.25" marker-end="none" marker-mid="none" marker-start="none" d="M 16.908305,10.250615 C 17.813158,9.8393773 18.43753,9.8071323 19.810772,9.7155427 C 18.5397,10.090235 18.242721,10.272215 17.360501,10.764704 C 16.810048,11.071987 16.410096,10.47704 16.908305,10.250615 z" color="#000" display="inline" opacity=".794" overflow="visible" visibility="visible" style="marker:none"/><path id="path2947" fill="none" fill-opacity="1" fill-rule="evenodd" stroke="url(#linearGradient2955)" stroke-dasharray="none" stroke-dashoffset="0" stroke-linecap="round" stroke-linejoin="round" stroke-miterlimit="4" stroke-opacity="1" stroke-width=".684" marker-end="none" marker-mid="none" marker-start="none" d="M 15 19.5 A 2.75 3 0 1 1 9.5,19.5 A 2.75 3 0 1 1 15 19.5 z" color="#000" display="inline" opacity=".299" overflow="visible" transform="matrix(1.528265,0,0,1.397683,-10.53375,-13.44231)" visibility="visible" style="marker:none"/><path id="path2887" fill="#fff" fill-opacity="1" fill-rule="evenodd" stroke="none" stroke-dasharray="none" stroke-linecap="butt" stroke-linejoin="miter" stroke-miterlimit="4" stroke-opacity="1" stroke-width="1.25" d="M 3.1463301,20.418614 C 5.0507211,22.299199 6.1190991,20.303448 8.4331241,19.184753 C 6.4892191,19.304481 4.4120331,22.243897 2.0082904,18.666045 L 3.1463301,20.418614 z" opacity=".742"/><g id="g3015" transform="matrix(0.673036,0,0,0.671463,0.376862,2.500295)"><path stroke-width="1" style="marker:none" id="path2977" fill="url(#linearGradient3023)" fill-opacity="1" fill-rule="evenodd" stroke="none" stroke-dasharray="none" stroke-dashoffset="0" stroke-linecap="butt" stroke-linejoin="round" stroke-miterlimit="4" stroke-opacity="1" marker-end="none" marker-mid="none" marker-start="none" d="M 42.4375,20.34375 L 42.4375,21.09375 C 40.672788,21.424936 37.889437,20.621802 35.53125,20.34375 C 37.83716,20.359058 40.281614,20.928538 42.4375,20.34375 z" color="#000" display="inline" opacity=".124" overflow="visible" visibility="visible"/><path stroke-width="1" style="marker:none" id="path2979" fill="url(#linearGradient3025)" fill-opacity="1" fill-rule="evenodd" stroke="none" stroke-dasharray="none" stroke-dashoffset="0" stroke-linecap="butt" stroke-linejoin="round" stroke-miterlimit="4" stroke-opacity="1" marker-end="none" marker-mid="none" marker-start="none" d="M 42.40625,21.78125 L 42.59375,22.46875 C 40.604167,22.823591 38.614583,21.661518 36.625,21.125 C 38.552083,21.370176 40.479167,22.279933 42.40625,21.78125 z" color="#000" display="inline" opacity=".124" overflow="visible" visibility="visible"/><path stroke-width="1" style="marker:none" id="path2981" fill="url(#linearGradient3027)" fill-opacity="1" fill-rule="evenodd" stroke="none" stroke-dasharray="none" stroke-dashoffset="0" stroke-linecap="butt" stroke-linejoin="round" stroke-miterlimit="4" stroke-opacity="1" marker-end="none" marker-mid="none" marker-start="none" d="M 42.8125,23.3125 L 43.125,23.90625 L 38.34375,22.5 L 42.8125,23.3125 z" color="#000" display="inline" opacity=".124" overflow="visible" visibility="visible"/></g><path id="path3136" fill="none" fill-opacity="1" fill-rule="evenodd" stroke="url(#linearGradient3146)" stroke-dasharray="none" stroke-linecap="butt" stroke-linejoin="miter" stroke-miterlimit="4" stroke-opacity="1" stroke-width=".967" d="M 14.1875,20.9375 L 13.75,21.375 L 16.75,25.40625 C 17.543132,24.822011 17.967269,24.222021 18.0625,23.65625 C 18.167862,23.030288 17.954643,22.434316 17.65625,21.96875 L 14.1875,20.9375 z" opacity=".345" xlink:href="#path2190"/></g></svg>