<svg xmlns="http://www.w3.org/2000/svg" xmlns:cc="http://web.resource.org/cc/" xmlns:svg="http://www.w3.org/2000/svg" xmlns:xlink="http://www.w3.org/1999/xlink" id="svg1307" width="48" height="48"><defs id="defs1309"><linearGradient id="linearGradient3031"><stop id="stop3033" offset="0" stop-color="#fff" stop-opacity="0"/><stop id="stop3041" offset=".5" stop-color="#fff" stop-opacity="1"/><stop id="stop3035" offset="1" stop-color="#fff" stop-opacity="0"/></linearGradient><linearGradient id="linearGradient3007"><stop id="stop3009" offset="0" stop-color="#000" stop-opacity="1"/><stop id="stop3011" offset="1" stop-color="#000" stop-opacity="0"/></linearGradient><linearGradient id="linearGradient2999"><stop id="stop3001" offset="0" stop-color="#000" stop-opacity="1"/><stop id="stop3003" offset="1" stop-color="#000" stop-opacity="0"/></linearGradient><linearGradient id="linearGradient2991"><stop id="stop2993" offset="0" stop-color="#000" stop-opacity="1"/><stop id="stop2995" offset="1" stop-color="#000" stop-opacity="0"/></linearGradient><linearGradient id="linearGradient2957"><stop id="stop2959" offset="0" stop-color="#fff" stop-opacity="1"/><stop id="stop2961" offset="1" stop-color="#fff" stop-opacity="0"/></linearGradient><linearGradient id="linearGradient2949"><stop id="stop2951" offset="0" stop-color="#fff" stop-opacity="1"/><stop id="stop2953" offset="1" stop-color="#fff" stop-opacity="0"/></linearGradient><linearGradient id="linearGradient2938"><stop id="stop2940" offset="0" stop-color="#fff" stop-opacity="1"/><stop id="stop2942" offset="1" stop-color="#fff" stop-opacity="0"/></linearGradient><linearGradient id="linearGradient2908"><stop id="stop2910" offset="0" stop-color="#000" stop-opacity="1"/><stop id="stop2916" offset=".459" stop-color="#a0a0a0" stop-opacity="1"/><stop id="stop2912" offset="1" stop-color="#000" stop-opacity="1"/></linearGradient><linearGradient id="linearGradient2879"><stop id="stop2881" offset="0" stop-color="#000" stop-opacity="1"/><stop id="stop2883" offset="1" stop-color="#000" stop-opacity="0"/></linearGradient><linearGradient id="linearGradient2851"><stop id="stop2853" offset="0" stop-color="#b15700" stop-opacity="1"/><stop id="stop2855" offset="1" stop-color="#b15700" stop-opacity="0"/></linearGradient><linearGradient id="linearGradient2841"><stop id="stop2843" offset="0" stop-color="#b15700" stop-opacity="1"/><stop id="stop2845" offset="1" stop-color="#ffaf61" stop-opacity="1"/></linearGradient><linearGradient id="linearGradient2822"><stop id="stop2824" offset="0" stop-color="#fed9a2" stop-opacity="1"/><stop id="stop2826" offset="1" stop-color="#fcaf3e" stop-opacity="1"/></linearGradient><linearGradient id="linearGradient2814"><stop id="stop2816" offset="0" stop-color="#fff" stop-opacity="1"/><stop id="stop2818" offset="1" stop-color="#fff" stop-opacity="0"/></linearGradient><linearGradient id="linearGradient2806"><stop id="stop2808" offset="0" stop-color="#000" stop-opacity="1"/><stop id="stop2810" offset="1" stop-color="#000" stop-opacity="0"/></linearGradient><linearGradient id="linearGradient2953"><stop id="stop2955" offset="0" stop-color="#fff" stop-opacity="1"/><stop id="stop2957" offset="1" stop-color="#fff" stop-opacity="0"/></linearGradient><linearGradient id="linearGradient2927"><stop id="stop2929" offset="0" stop-color="#fff" stop-opacity="1"/><stop id="stop2931" offset="1" stop-color="#c4c4bd" stop-opacity="1"/></linearGradient><linearGradient id="linearGradient2215"><stop id="stop2217" offset="0" stop-color="#fcaf3e" stop-opacity="1"/><stop id="stop2219" offset="1" stop-color="#f57900"/></linearGradient><linearGradient id="linearGradient2887" x1="26.248" x2="23.783" y1="38.032" y2="36.457" gradientTransform="matrix(0.967422,0,0,0.946165,0.203164,-2.39917)" gradientUnits="userSpaceOnUse" xlink:href="#linearGradient2215"/><linearGradient id="linearGradient2896" x1="15.819" x2="18.835" y1="18.417" y2="27.884" gradientTransform="matrix(0.970483,0,0,1.009611,0.547852,-1.486841)" gradientUnits="userSpaceOnUse" xlink:href="#linearGradient2822"/><radialGradient id="radialGradient2933" cx="12.51" cy="18.175" r="3.069" fx="12.51" fy="18.175" gradientTransform="matrix(0.774722,0,0,0.78676,2.558566,3.937224)" gradientUnits="userSpaceOnUse" xlink:href="#linearGradient2927"/><linearGradient id="linearGradient2959" x1="10.52" x2="10.602" y1="15.219" y2="16.44" gradientUnits="userSpaceOnUse" xlink:href="#linearGradient2953"/><linearGradient id="linearGradient2812" x1="15" x2="14.75" y1="30.188" y2="24.563" gradientTransform="matrix(1.069124,0,0,1.069124,-1.188076,0.154979)" gradientUnits="userSpaceOnUse" xlink:href="#linearGradient2806"/><linearGradient id="linearGradient2820" x1="9.09" x2="9.577" y1="19.5" y2="22.929" gradientUnits="userSpaceOnUse" xlink:href="#linearGradient2814"/><radialGradient id="radialGradient2828" cx="13.6" cy="14.214" r="3.682" fx="13.6" fy="14.214" gradientTransform="matrix(1,0,0,1.243392,0,-1.961352)" gradientUnits="userSpaceOnUse" xlink:href="#linearGradient2822"/><linearGradient id="linearGradient2847" x1="11.449" x2="11.646" y1="17.084" y2="23.566" gradientUnits="userSpaceOnUse" xlink:href="#linearGradient2841"/><linearGradient id="linearGradient2857" x1="20.506" x2="22.804" y1="26.124" y2="23.516" gradientTransform="translate(0,2)" gradientUnits="userSpaceOnUse" xlink:href="#linearGradient2851"/><radialGradient id="radialGradient2885" cx="20.153" cy="33.637" r="15.291" fx="20.153" fy="33.637" gradientTransform="matrix(1,0,0,0.257225,0,24.98463)" gradientUnits="userSpaceOnUse" xlink:href="#linearGradient2879"/><linearGradient id="linearGradient2914" x1="11" x2="10.563" y1="8.969" y2="12.281" gradientTransform="translate(0,2)" gradientUnits="userSpaceOnUse" xlink:href="#linearGradient2908"/><linearGradient id="linearGradient2936" x1="27.424" x2="34.512" y1="15.168" y2="14.908" gradientTransform="matrix(0.955799,0.125613,-0.13219,1.005843,6.623437,-0.987914)" gradientUnits="userSpaceOnUse" xlink:href="#linearGradient2215"/><linearGradient id="linearGradient2944" x1="20.969" x2="23.219" y1="18.626" y2="34.314" gradientUnits="userSpaceOnUse" xlink:href="#linearGradient2938"/><linearGradient id="linearGradient2955" x1="12.574" x2="12.574" y1="21.925" y2="19.5" gradientUnits="userSpaceOnUse" xlink:href="#linearGradient2949"/><linearGradient id="linearGradient2963" x1="25.531" x2="21.205" y1="32.305" y2="27.438" gradientUnits="userSpaceOnUse" xlink:href="#linearGradient2957"/><linearGradient id="linearGradient3023" x1="35.531" x2="42.438" y1="20.719" y2="20.719" gradientUnits="userSpaceOnUse" xlink:href="#linearGradient2991"/><linearGradient id="linearGradient3025" x1="36.625" x2="42.594" y1="21.797" y2="21.797" gradientUnits="userSpaceOnUse" xlink:href="#linearGradient2999"/><linearGradient id="linearGradient3027" x1="38.344" x2="43.125" y1="23.203" y2="23.203" gradientUnits="userSpaceOnUse" xlink:href="#linearGradient3007"/><linearGradient id="linearGradient3037" x1="44.031" x2="37.594" y1="22.063" y2="22.219" gradientTransform="translate(0,2)" gradientUnits="userSpaceOnUse" xlink:href="#linearGradient3031"/></defs><metadata id="metadata1312"/><g id="layer1"><path id="path2877" fill="url(#radialGradient2885)" fill-opacity="1" fill-rule="evenodd" stroke="none" stroke-dasharray="none" stroke-dashoffset="0" stroke-linecap="butt" stroke-linejoin="round" stroke-miterlimit="4" stroke-opacity="1" stroke-width="1.25" marker-end="none" marker-mid="none" marker-start="none" d="M 35.443728 33.636894 A 15.291184 3.9332814 0 1 1 4.8613596,33.636894 A 15.291184 3.9332814 0 1 1 35.443728 33.636894 z" color="#000" display="inline" opacity=".294" overflow="visible" transform="matrix(1,0,0,1.651685,0.883883,-21.33488)" visibility="visible" style="marker:none"/><path id="path3043" fill="#bd7102" fill-opacity="1" fill-rule="evenodd" stroke="#b15700" stroke-dasharray="none" stroke-dashoffset="0" stroke-linecap="butt" stroke-linejoin="miter" stroke-miterlimit="4" stroke-opacity="1" stroke-width="1" marker-end="none" marker-mid="none" marker-start="none" d="M 41.5625,14.375 L 41.6875,24.25 L 45.0625,17.5 L 41.5625,14.375 z" color="#000" display="inline" opacity="1" overflow="visible" visibility="visible" style="marker:none"/><path id="path2192" fill="url(#linearGradient2936)" fill-opacity="1" fill-rule="evenodd" stroke="#b15700" stroke-dasharray="none" stroke-linecap="butt" stroke-linejoin="miter" stroke-miterlimit="4" stroke-opacity="1" stroke-width="1" d="M 13.875,10.575444 C 8.5172982,10.793487 3.7281671,16.033205 1.46875,22.65625 C 1.950759,28.711605 8.787856,35.384227 16.5,34.375 C 23.576689,33.448932 25.9544,30.074981 32.375,24.78125 C 40.582986,28.916388 45.8125,28.625 45.8125,28.625 C 42.163666,24.3177 49.242271,17.510778 42.242271,14.448278 C 45.085556,18.467871 39.39742,21.555615 32.21875,19.59375 C 31.143784,18.80082 30.023003,17.987722 28.875,17.1875 C 28.758343,14.905773 30.622369,13.340049 32.1875,11.538832 C 25.102291,11.46268 24.748737,12.169787 22.5,13.21875 C 19.856511,11.802521 17.266979,10.807194 14.96875,10.606694 C 14.607243,10.575156 14.23218,10.560908 13.875,10.575444 z"/><path id="path3029" fill="url(#linearGradient3037)" fill-opacity="1" fill-rule="evenodd" stroke="none" stroke-dasharray="none" stroke-dashoffset="0" stroke-linecap="butt" stroke-linejoin="miter" stroke-miterlimit="4" stroke-opacity="1" stroke-width="1" marker-end="none" marker-mid="none" marker-start="none" d="M 43.65625,18.65625 C 43.487325,22.606998 43.166667,24.552083 44.03125,27.09375 C 40.924462,27.48441 38.036169,26.906828 35.1875,25.625 L 37.5,21.625 C 39.403388,21.615271 41.923827,20.668406 43.65625,18.65625 z" color="#000" display="inline" opacity=".356" overflow="visible" visibility="visible" style="marker:none"/><path id="path2223" fill="url(#linearGradient2896)" fill-opacity="1" fill-rule="evenodd" stroke="none" stroke-dashoffset="0" stroke-linecap="round" stroke-linejoin="round" stroke-miterlimit="4" stroke-opacity="1" stroke-width="1" marker-end="none" marker-mid="none" marker-start="none" d="M 32.171573,20.11771 C 20.888272,17.078953 13.216375,32.386193 2.0035757,22.743835 C 4.4447847,15.721045 10.029188,10.049697 15.105097,11.133303 C 18.383499,11.833177 20.694731,12.701373 22.595467,13.697506 C 26.032588,15.498824 28.12739,17.718493 32.171573,20.11771 z" color="#000" display="inline" opacity=".943" overflow="visible" visibility="visible" style="marker:none"/><path id="path2934" fill="none" fill-opacity="1" fill-rule="evenodd" stroke="url(#linearGradient2944)" stroke-dasharray="none" stroke-linecap="butt" stroke-linejoin="miter" stroke-miterlimit="4" stroke-opacity="1" stroke-width="1" d="M 13.90625,11.46875 C 9.1689358,11.661545 4.6145642,16.459311 2.40625,22.75 C 2.6730489,25.425098 4.3216267,28.347634 6.84375,30.46875 C 9.4144409,32.630712 12.807984,33.935537 16.375,33.46875 C 19.785847,33.022401 21.961371,32.028109 24.15625,30.46875 C 26.351129,28.909391 28.571642,26.765811 31.8125,24.09375 C 32.083452,23.866829 32.461571,23.81804 32.78125,23.96875 C 36.808513,25.997663 40.089354,26.945985 42.34375,27.375 C 43.605062,27.61503 43.683556,27.535888 44.25,27.5625 C 43.93865,26.714438 43.753644,25.852707 43.78125,25 C 43.827351,23.576014 44.193285,22.175712 44.40625,20.90625 C 44.619215,19.636788 44.670977,18.517634 44.375,17.625 C 44.256936,17.268931 44.042788,16.945284 43.78125,16.625 C 43.771026,16.909317 43.830716,17.198377 43.75,17.46875 C 43.415196,18.590243 42.539143,19.467873 41.40625,20.0625 C 39.140464,21.251755 35.733975,21.497752 31.96875,20.46875 C 31.866435,20.433851 31.771185,20.380934 31.6875,20.3125 C 30.616527,19.522515 29.482495,18.731269 28.34375,17.9375 C 28.112633,17.770257 27.97371,17.503988 27.96875,17.21875 C 27.897307,15.821373 28.444006,14.650973 29.15625,13.65625 C 29.442087,13.257049 29.773793,12.926414 30.09375,12.5625 C 28.402031,12.618949 26.511724,12.661518 25.75,12.84375 C 24.621231,13.113793 24.054356,13.481119 22.875,14.03125 C 22.619325,14.159397 22.318175,14.159397 22.0625,14.03125 C 19.478365,12.646819 16.969817,11.682754 14.875,11.5 C 14.544027,11.471126 14.213618,11.456241 13.90625,11.46875 z" opacity=".459" xlink:href="#path2192"/><path id="path2180" fill="url(#radialGradient2933)" fill-opacity="1" fill-rule="evenodd" stroke="url(#linearGradient2847)" stroke-dasharray="none" stroke-dashoffset="0" stroke-linecap="round" stroke-linejoin="round" stroke-miterlimit="4" stroke-opacity="1" stroke-width=".638" marker-end="none" marker-mid="none" marker-start="none" d="M 15 19.5 A 2.75 3 0 1 1 9.5,19.5 A 2.75 3 0 1 1 15 19.5 z" color="#000" display="inline" overflow="visible" transform="matrix(1.636365,0,0,1.5,-8.045463,-10.25)" visibility="visible" style="marker:none"/><path id="path2917" fill="none" fill-opacity="1" fill-rule="evenodd" stroke="url(#linearGradient2820)" stroke-dasharray="none" stroke-dashoffset="0" stroke-linecap="round" stroke-linejoin="round" stroke-miterlimit="4" stroke-opacity="1" stroke-width=".821" marker-end="none" marker-mid="none" marker-start="none" d="M 15 19.5 A 2.75 3 0 1 1 9.5,19.5 A 2.75 3 0 1 1 15 19.5 z" color="#000" display="inline" overflow="visible" transform="matrix(1.272726,0,0,1.166668,-3.590891,-3.75002)" visibility="visible" style="marker:none"/><path id="path2182" fill="#b15700" fill-opacity="1" fill-rule="evenodd" stroke="none" stroke-dasharray="none" stroke-linecap="butt" stroke-linejoin="miter" stroke-miterlimit="4" stroke-opacity="1" stroke-width="1.25" d="M 3.4613009,26.974521 C 6.3533549,30.525247 8.706825,27.804345 12.562897,26.789852 C 9.6746332,26.968161 6.7133402,30.220789 2.298097,24.986098 L 3.4613009,26.974521 z"/><path id="path2201" fill="#000" fill-opacity=".402" fill-rule="evenodd" stroke="none" stroke-dasharray="none" stroke-dashoffset="0" stroke-linecap="round" stroke-linejoin="round" stroke-miterlimit="4" stroke-opacity="1" stroke-width="1" marker-end="none" marker-mid="none" marker-start="none" d="M 13.515379,14.352365 C 12.179465,13.797999 10.610254,14.304755 9.3882008,14.814689 C 14.067363,14.660827 16.034391,21.968787 16.034391,21.968787 C 17.624021,18.699825 16.299645,15.50775 13.515379,14.352365 z" color="#000" display="inline" overflow="visible" visibility="visible" style="marker:none"/><path id="path2221" fill="#000" fill-opacity="1" fill-rule="evenodd" stroke="#3465a4" stroke-dasharray="none" stroke-dashoffset="0" stroke-linecap="round" stroke-linejoin="round" stroke-miterlimit="4" stroke-opacity="1" stroke-width="1.329" marker-end="none" marker-mid="none" marker-start="none" d="M 28 24.5 A 2 2 0 1 1 24,24.5 A 2 2 0 1 1 28 24.5 z" color="#000" display="inline" overflow="visible" transform="matrix(0.750003,0,0,0.755435,-8.500072,0.50272)" visibility="visible" style="marker:none"/><path id="path1917" fill="url(#linearGradient2812)" fill-opacity="1" fill-rule="evenodd" stroke="none" stroke-dasharray="none" stroke-dashoffset="0" stroke-linecap="round" stroke-linejoin="round" stroke-miterlimit="4" stroke-opacity="1" stroke-width="1" marker-end="none" marker-mid="none" marker-start="none" d="M 2.6875,25.947606 C 2.6875,25.947606 6.3829889,33.584592 14.430588,33.931477 C 24.413995,34.368593 31.6875,23.942997 31.6875,23.942997 L 2.6875,25.947606 z" color="#000" display="inline" opacity=".314" overflow="visible" visibility="visible" style="marker:none"/><path id="path2190" fill="url(#linearGradient2887)" fill-opacity="1" fill-rule="evenodd" stroke="#b15700" stroke-dasharray="none" stroke-linecap="butt" stroke-linejoin="miter" stroke-miterlimit="4" stroke-opacity="1" stroke-width=".967" d="M 18.584181,29.770448 L 24.395184,37.625631 C 28.748583,35.260217 28.258401,31.662779 26.807268,29.770448 L 20.519025,27.878117 L 18.584181,29.770448 z"/><path id="path2243" fill="none" fill-opacity="1" fill-rule="evenodd" stroke="url(#linearGradient2963)" stroke-dasharray="none" stroke-linecap="butt" stroke-linejoin="miter" stroke-miterlimit="4" stroke-opacity="1" stroke-width="1.011" d="M 20.78125,26.90625 L 19.8125,27.875 L 24.59375,34.3125 C 25.987567,33.35835 26.713604,32.340702 26.875,31.375 C 27.049687,30.32977 26.698698,29.317404 26.1875,28.5625 L 20.78125,26.90625 z" opacity=".402" transform="matrix(0.964018,0,0,1.014493,0.840337,-0.402564)" xlink:href="#path2190"/><path id="path2935" fill="url(#linearGradient2959)" fill-opacity="1" fill-rule="nonzero" stroke="none" stroke-dasharray="none" stroke-dashoffset="0" stroke-linecap="round" stroke-linejoin="miter" stroke-miterlimit="4" stroke-opacity="1" stroke-width="1" marker-end="none" marker-mid="none" marker-start="none" d="M 12.21875 15.65625 A 1.5625 0.875 0 1 1 9.09375,15.65625 A 1.5625 0.875 0 1 1 12.21875 15.65625 z" color="#000" display="inline" opacity="1" overflow="visible" transform="matrix(0.690309,0,0,1.035463,3.283165,2.142081)" visibility="visible" style="marker:none"/><path id="path2830" fill="url(#radialGradient2828)" fill-opacity="1" fill-rule="evenodd" stroke="none" stroke-dasharray="none" stroke-dashoffset="0" stroke-linecap="round" stroke-linejoin="round" stroke-miterlimit="4" stroke-opacity="1" stroke-width="1" marker-end="none" marker-mid="none" marker-start="none" d="M 13.868931,14.087201 C 12.533017,13.532835 10.963806,14.039591 9.741754,14.549525 C 14.420915,14.395663 16.387943,21.703623 16.387943,21.703623 C 17.977573,18.434661 16.653197,15.242586 13.868931,14.087201 z" color="#000" display="inline" overflow="visible" visibility="visible" style="marker:none"/><path id="path2849" fill="url(#linearGradient2857)" fill-opacity="1" fill-rule="evenodd" stroke="none" stroke-dasharray="none" stroke-dashoffset="0" stroke-linecap="round" stroke-linejoin="round" stroke-miterlimit="4" stroke-opacity="1" stroke-width="1" marker-end="none" marker-mid="none" marker-start="none" d="M 15.909902,31.792001 L 22.097087,25.516428 L 24.130019,25.781593 L 15.909902,31.792001 z" color="#000" display="inline" opacity="1" overflow="visible" visibility="visible" style="marker:none"/><path id="path2901" fill="url(#linearGradient2914)" fill-opacity="1" fill-rule="evenodd" stroke="none" stroke-dasharray="none" stroke-dashoffset="0" stroke-linecap="butt" stroke-linejoin="round" stroke-miterlimit="4" stroke-opacity="1" stroke-width="1.25" marker-end="none" marker-mid="none" marker-start="none" d="M 9.9375,15.375 C 6.9375,14.1875 6.25,9.4374999 6.25,9.4374999 C 6.25,9.4374999 6.9375,13.0625 10.375,14.4375 C 8.379305,12.272063 9.590935,11.237291 9.75,9.6874999 C 9.848016,11.911032 9.665199,13.237647 11.625,14.8125 C 10.788233,13.436356 11.291904,12.507023 11.375,11.4375 C 11.5276,12.726353 11.673851,14.426437 12.625,15.875 C 11.663977,15.512764 10.733436,15.241974 9.9375,15.375 z" color="#000" display="inline" opacity="1" overflow="visible" visibility="visible" style="marker:none"/><path stroke-width="1.25" style="marker:none" id="path2903" fill="#000" fill-opacity="1" fill-rule="evenodd" stroke="none" stroke-dasharray="none" stroke-dashoffset="0" stroke-linecap="butt" stroke-linejoin="round" stroke-miterlimit="4" stroke-opacity="1" marker-end="none" marker-mid="none" marker-start="none" d="M 12.27437,15.723848 C 11.445686,13.840314 13.079222,12.155893 13.079222,12.155893 C 13.079222,12.155893 11.913756,13.82208 13.028961,15.738987 C 12.751266,14.151413 13.221158,13.668112 13.980977,13.03942 C 13.287328,14.268569 13.084495,14.754393 13.663111,16.469708 C 13.688878,15.310327 14.13601,14.972949 14.601049,14.356216 C 14.193994,15.197402 14.154925,16.53423 14.170487,17.781894 C 13.5966,17.057111 13.084759,16.290963 12.27437,15.723848 z" color="#000" display="inline" opacity="1" overflow="visible" visibility="visible"/><path id="path2905" fill="#000" fill-opacity="1" fill-rule="evenodd" stroke="none" stroke-dasharray="none" stroke-dashoffset="0" stroke-linecap="butt" stroke-linejoin="round" stroke-miterlimit="4" stroke-opacity="1" stroke-width="1.25" marker-end="none" marker-mid="none" marker-start="none" d="M 14.116652,17.661244 C 13.67598,16.118152 15.391888,14.97433 15.391888,14.97433 C 15.391888,14.97433 14.078458,16.187732 14.577745,17.960199 C 14.702111,16.985645 15.163118,16.556179 15.822588,16.149306 C 15.286122,16.858131 14.89664,17.254108 14.869335,18.5043 C 15.158562,17.757268 15.64648,17.643074 16.093501,17.351768 C 15.631391,17.802498 15.202341,18.443463 14.919212,19.257553 L 14.116652,17.661244 z" color="#000" display="inline" opacity="1" overflow="visible" visibility="visible" style="marker:none"/><path id="path2930" fill="#fff" fill-opacity="1" fill-rule="evenodd" stroke="none" stroke-dasharray="none" stroke-dashoffset="0" stroke-linecap="butt" stroke-linejoin="round" stroke-miterlimit="4" stroke-opacity="1" stroke-width="1.25" marker-end="none" marker-mid="none" marker-start="none" d="M 24.875,13.609375 C 26.219436,12.996925 27.147131,12.948903 29.1875,12.8125 C 27.298936,13.370523 26.857683,13.641544 25.546875,14.375 C 24.72901,14.832632 24.134759,13.946587 24.875,13.609375 z" color="#000" display="inline" opacity=".794" overflow="visible" visibility="visible" style="marker:none"/><path id="path2947" fill="none" fill-opacity="1" fill-rule="evenodd" stroke="url(#linearGradient2955)" stroke-dasharray="none" stroke-dashoffset="0" stroke-linecap="round" stroke-linejoin="round" stroke-miterlimit="4" stroke-opacity="1" stroke-width=".522" marker-end="none" marker-mid="none" marker-start="none" d="M 15 19.5 A 2.75 3 0 1 1 9.5,19.5 A 2.75 3 0 1 1 15 19.5 z" color="#000" display="inline" opacity=".299" overflow="visible" transform="matrix(2.000001,0,0,1.833333,-12.50001,-16.75)" visibility="visible" style="marker:none"/><path id="path2887" fill="#fff" fill-opacity="1" fill-rule="evenodd" stroke="none" stroke-dasharray="none" stroke-linecap="butt" stroke-linejoin="miter" stroke-miterlimit="4" stroke-opacity="1" stroke-width="1.25" d="M 4.1488009,28.287021 C 6.9783549,31.087747 8.519325,27.929345 12.375397,26.914852 C 9.4871332,27.093161 6.4008402,31.470789 2.829347,26.142348 L 4.1488009,28.287021 z" opacity=".742"/><g id="g3015" transform="translate(0.3125,2.066941)"><path stroke-width="1" style="marker:none" id="path2977" fill="url(#linearGradient3023)" fill-opacity="1" fill-rule="evenodd" stroke="none" stroke-dasharray="none" stroke-dashoffset="0" stroke-linecap="butt" stroke-linejoin="round" stroke-miterlimit="4" stroke-opacity="1" marker-end="none" marker-mid="none" marker-start="none" d="M 42.4375,20.34375 L 42.4375,21.09375 C 40.672788,21.424936 37.889437,20.621802 35.53125,20.34375 C 37.83716,20.359058 40.281614,20.928538 42.4375,20.34375 z" color="#000" display="inline" opacity=".124" overflow="visible" visibility="visible"/><path stroke-width="1" style="marker:none" id="path2979" fill="url(#linearGradient3025)" fill-opacity="1" fill-rule="evenodd" stroke="none" stroke-dasharray="none" stroke-dashoffset="0" stroke-linecap="butt" stroke-linejoin="round" stroke-miterlimit="4" stroke-opacity="1" marker-end="none" marker-mid="none" marker-start="none" d="M 42.40625,21.78125 L 42.59375,22.46875 C 40.604167,22.823591 38.614583,21.661518 36.625,21.125 C 38.552083,21.370176 40.479167,22.279933 42.40625,21.78125 z" color="#000" display="inline" opacity=".124" overflow="visible" visibility="visible"/><path stroke-width="1" style="marker:none" id="path2981" fill="url(#linearGradient3027)" fill-opacity="1" fill-rule="evenodd" stroke="none" stroke-dasharray="none" stroke-dashoffset="0" stroke-linecap="butt" stroke-linejoin="round" stroke-miterlimit="4" stroke-opacity="1" marker-end="none" marker-mid="none" marker-start="none" d="M 42.8125,23.3125 L 43.125,23.90625 L 38.34375,22.5 L 42.8125,23.3125 z" color="#000" display="inline" opacity=".124" overflow="visible" visibility="visible"/></g></g></svg>